<?xml version="1.0" standalone="no"?>
<!DOCTYPE svg PUBLIC "-//W3C//DTD SVG 1.1//EN" "http://www.w3.org/Graphics/SVG/1.1/DTD/svg11.dtd">
<svg version="1.1" xmlns="http://www.w3.org/2000/svg" viewBox="0 0 333.6621193304271 271.20001220703125" width="1000.9863579912814" height="813.6000366210938"><!-- svg-source:excalidraw --><metadata></metadata><defs><style class="style-fonts">
      </style></defs><g stroke-linecap="round"><g transform="translate(89.20001220703125 10) rotate(0 2 124.80000305175781)"><path d="M0 0 C0.67 41.6, 3.33 208, 4 249.6 M0 0 C0.67 41.6, 3.33 208, 4 249.6" stroke="#1e1e1e" stroke-width="4" fill="none"></path></g></g><mask></mask><g stroke-linecap="round"><g transform="translate(89.20001220703125 10.800003051757812) rotate(0 68.8000461546834 125.20000457763672)"><path d="M0 0 C22.93 20.8, 137.47 83.07, 137.6 124.8 C137.73 166.53, 23.6 229.47, 0.8 250.4 M0 0 C22.93 20.8, 137.47 83.07, 137.6 124.8 C137.73 166.53, 23.6 229.47, 0.8 250.4" stroke="#1e1e1e" stroke-width="4" fill="none"></path></g></g><mask></mask><g stroke-linecap="round"><g transform="translate(24.40008544921875 140.39999389648438) rotate(0 147.5999755859375 -3.5999908447265625)"><path d="M0 0 C49.2 -1.2, 246 -6, 295.2 -7.2 M0 0 C49.2 -1.2, 246 -6, 295.2 -7.2" stroke="#1e1e1e" stroke-width="4" fill="none"></path></g><g transform="translate(24.40008544921875 140.39999389648438) rotate(0 147.5999755859375 -3.5999908447265625)"><path d="M271.92 1.92 C279.94 -1.22, 287.95 -4.36, 295.2 -7.2 M271.92 1.92 C280.73 -1.53, 289.54 -4.98, 295.2 -7.2" stroke="#1e1e1e" stroke-width="4" fill="none"></path></g><g transform="translate(24.40008544921875 140.39999389648438) rotate(0 147.5999755859375 -3.5999908447265625)"><path d="M271.51 -15.18 C279.66 -12.43, 287.82 -9.68, 295.2 -7.2 M271.51 -15.18 C280.47 -12.16, 289.44 -9.14, 295.2 -7.2" stroke="#1e1e1e" stroke-width="4" fill="none"></path></g></g><mask></mask><g stroke-linecap="round" transform="translate(10 129.20001220703125) rotate(0 21.20001220703125 10)"><path d="M42.4 10 C42.4 10.58, 42.29 11.17, 42.08 11.74 C41.86 12.31, 41.54 12.88, 41.12 13.42 C40.7 13.96, 40.17 14.5, 39.56 15 C38.95 15.5, 38.23 15.98, 37.44 16.43 C36.65 16.87, 35.77 17.29, 34.83 17.66 C33.89 18.03, 32.86 18.37, 31.8 18.66 C30.74 18.95, 29.6 19.2, 28.45 19.4 C27.3 19.59, 26.09 19.75, 24.88 19.85 C23.67 19.95, 22.43 20, 21.2 20 C19.97 20, 18.73 19.95, 17.52 19.85 C16.31 19.75, 15.1 19.59, 13.95 19.4 C12.8 19.2, 11.66 18.95, 10.6 18.66 C9.54 18.37, 8.51 18.03, 7.57 17.66 C6.63 17.29, 5.75 16.87, 4.96 16.43 C4.17 15.98, 3.45 15.5, 2.84 15 C2.23 14.5, 1.7 13.96, 1.28 13.42 C0.86 12.88, 0.54 12.31, 0.32 11.74 C0.11 11.17, 0 10.58, 0 10 C0 9.42, 0.11 8.83, 0.32 8.26 C0.54 7.69, 0.86 7.12, 1.28 6.58 C1.7 6.04, 2.23 5.5, 2.84 5 C3.45 4.5, 4.17 4.02, 4.96 3.57 C5.75 3.13, 6.63 2.71, 7.57 2.34 C8.51 1.97, 9.54 1.63, 10.6 1.34 C11.66 1.05, 12.8 0.8, 13.95 0.6 C15.1 0.41, 16.31 0.25, 17.52 0.15 C18.73 0.05, 19.97 0, 21.2 0 C22.43 0, 23.67 0.05, 24.88 0.15 C26.09 0.25, 27.3 0.41, 28.45 0.6 C29.6 0.8, 30.74 1.05, 31.8 1.34 C32.86 1.63, 33.89 1.97, 34.83 2.34 C35.77 2.71, 36.65 3.13, 37.44 3.57 C38.23 4.02, 38.95 4.5, 39.56 5 C40.17 5.5, 40.7 6.04, 41.12 6.58 C41.54 7.12, 41.86 7.69, 42.08 8.26 C42.29 8.83, 42.35 9.71, 42.4 10 C42.45 10.29, 42.45 9.71, 42.4 10" stroke="none" stroke-width="0" fill="#e03131"></path><path d="M42.4 10 C42.4 10.58, 42.29 11.17, 42.08 11.74 C41.86 12.31, 41.54 12.88, 41.12 13.42 C40.7 13.96, 40.17 14.5, 39.56 15 C38.95 15.5, 38.23 15.98, 37.44 16.43 C36.65 16.87, 35.77 17.29, 34.83 17.66 C33.89 18.03, 32.86 18.37, 31.8 18.66 C30.74 18.95, 29.6 19.2, 28.45 19.4 C27.3 19.59, 26.09 19.75, 24.88 19.85 C23.67 19.95, 22.43 20, 21.2 20 C19.97 20, 18.73 19.95, 17.52 19.85 C16.31 19.75, 15.1 19.59, 13.95 19.4 C12.8 19.2, 11.66 18.95, 10.6 18.66 C9.54 18.37, 8.51 18.03, 7.57 17.66 C6.63 17.29, 5.75 16.87, 4.96 16.43 C4.17 15.98, 3.45 15.5, 2.84 15 C2.23 14.5, 1.7 13.96, 1.28 13.42 C0.86 12.88, 0.54 12.31, 0.32 11.74 C0.11 11.17, 0 10.58, 0 10 C0 9.42, 0.11 8.83, 0.32 8.26 C0.54 7.69, 0.86 7.12, 1.28 6.58 C1.7 6.04, 2.23 5.5, 2.84 5 C3.45 4.5, 4.17 4.02, 4.96 3.57 C5.75 3.13, 6.63 2.71, 7.57 2.34 C8.51 1.97, 9.54 1.63, 10.6 1.34 C11.66 1.05, 12.8 0.8, 13.95 0.6 C15.1 0.41, 16.31 0.25, 17.52 0.15 C18.73 0.05, 19.97 0, 21.2 0 C22.43 0, 23.67 0.05, 24.88 0.15 C26.09 0.25, 27.3 0.41, 28.45 0.6 C29.6 0.8, 30.74 1.05, 31.8 1.34 C32.86 1.63, 33.89 1.97, 34.83 2.34 C35.77 2.71, 36.65 3.13, 37.44 3.57 C38.23 4.02, 38.95 4.5, 39.56 5 C40.17 5.5, 40.7 6.04, 41.12 6.58 C41.54 7.12, 41.86 7.69, 42.08 8.26 C42.29 8.83, 42.35 9.71, 42.4 10 C42.45 10.29, 42.45 9.71, 42.4 10" stroke="#e03131" stroke-width="4" fill="none"></path></g><g stroke-linecap="round"><g transform="translate(75.60003662109375 12.399993896484375) rotate(0 1.5999755859375 122.80000305175781)"><path d="M0 0 C0.53 40.93, 2.67 204.67, 3.2 245.6 M0 0 C0.53 40.93, 2.67 204.67, 3.2 245.6" stroke="#e03131" stroke-width="4" fill="none"></path></g></g><mask></mask><g stroke-linecap="round"><g transform="translate(298.98649666805784 113.67766816812855) rotate(0 12.255008500260772 6.044698260481027)"><path d="M0 0 C4.09 2.01, 20.43 10.07, 24.51 12.09 M0 0 C4.09 2.01, 20.43 10.07, 24.51 12.09" stroke="#e03131" stroke-width="4" fill="none"></path></g></g><mask></mask><g stroke-linecap="round"><g transform="translate(300.97380251493655 151.60194593674686) rotate(0 11.344158407745283 -4.554225192773089)"><path d="M0 0 C3.78 -1.52, 18.91 -7.59, 22.69 -9.11 M0 0 C3.78 -1.52, 18.91 -7.59, 22.69 -9.11" stroke="#e03131" stroke-width="4" fill="none"></path></g></g><mask></mask></svg>